<svg width="96" height="86" viewBox="0 0 96 86" fill="none" xmlns="http://www.w3.org/2000/svg">
	<path d="M41.6011 60.6659C32.4897 59.9255 25.3246 52.3018 25.3246 42.9996C25.3246 41.8491 25.4382 40.7253 25.6476 39.6356L19.451 33.4391C16.5059 33.8066 13.5659 33.3532 10.9166 32.1758C10.6145 33.0737 10.3464 33.9866 10.1215 34.9155H3.51862C1.85162 34.9155 0.5 36.267 0.5 37.9342V48.0653C0.5 49.7256 1.8584 51.0839 3.51862 51.0839H10.1215C10.9413 54.472 12.2797 57.6672 14.0519 60.5727V60.585C14.0519 60.585 11.3809 63.2514 9.38684 65.2421C8.20721 66.4197 8.20679 68.3281 9.3855 69.5068C11.4312 71.5522 14.5024 74.6234 16.5483 76.6691C17.7272 77.8481 19.6378 77.8472 20.8165 76.6685L25.4819 72.0029C28.3877 73.7631 31.5828 75.1136 34.9708 75.9335V82.5364C34.9708 84.2036 36.3221 85.5551 37.9894 85.5551H41.9828C41.739 85.0017 41.6011 84.3917 41.6011 83.7493V60.6659Z" fill="#020817" />
	<path d="M33.4947 19.3956L39.6915 25.5926C40.7811 25.3831 41.9047 25.2695 43.0554 25.2695C48.7734 25.2695 53.856 27.9793 57.0983 32.1815L62.8013 27.2857C64.449 25.8719 66.8403 25.8719 68.4877 27.2855L75.5681 33.3639C74.7389 30.5507 73.549 27.8844 72.0706 25.4268L76.7352 20.7625C77.9144 19.5831 77.9139 17.671 76.734 16.4923L69.5649 9.33075C68.39 8.1571 66.4683 8.15839 65.295 9.33386L60.6405 13.9968H60.6285C57.7228 12.2245 54.5276 10.8861 51.1397 10.0662V3.46344C51.1397 1.8031 49.7813 0.444824 48.1211 0.444824H37.9896C36.3294 0.444824 34.971 1.8031 34.971 3.46344V10.0662C34.0422 10.291 33.1295 10.5594 32.2314 10.8614C33.4089 13.5106 33.8621 16.4505 33.4947 19.3956Z" fill="#020817" />
	<path d="M20.3225 30.4321L20.4123 30.4126L20.4772 30.4776L38.4158 48.4161L49.2376 39.1266L30.468 20.3572L30.4876 20.2673C31.4627 15.8014 30.1195 11.2097 26.8944 7.98453C23.8962 4.98624 19.5999 3.58707 15.4034 4.24283C15.0238 4.3021 14.7251 4.5582 14.6046 4.92789C14.4833 5.30015 14.5785 5.70219 14.8533 5.97709L19.9533 11.0769C21.0799 12.2035 21.0799 14.0369 19.9532 15.1634L15.2187 19.8979C14.092 21.0245 12.2589 21.0245 11.1322 19.8979L6.03245 14.7981C5.75761 14.5234 5.35581 14.4275 4.98319 14.5492C4.61369 14.6699 4.35758 14.9685 4.29838 15.3479C3.64298 19.5453 5.04173 23.841 8.03977 26.8391C11.2649 30.0642 15.8572 31.4076 20.3225 30.4321Z" fill="#020817" />
	<path d="M94.912 53.511L87.0003 46.7194V35.2088C87.0003 34.3257 86.2844 33.6098 85.4014 33.6098H79.4691C78.5859 33.6098 77.8701 34.3257 77.8701 35.2088V38.882L66.7371 29.325C66.1086 28.7855 65.1805 28.7855 64.552 29.325L36.3773 53.511C35.196 54.5251 35.9131 56.4615 37.47 56.4615H44.2889V83.7492C44.2889 84.7465 45.0974 85.555 46.0948 85.555H57.752C58.7494 85.555 59.5579 84.7465 59.5579 83.7492V72.7153C59.5579 69.3536 62.2831 66.6284 65.6448 66.6284C69.0065 66.6284 71.7318 69.3536 71.7318 72.7153V83.7492C71.7318 84.7465 72.5403 85.555 73.5377 85.555H85.1949C86.192 85.555 87.0003 84.7467 87.0003 83.7496V56.4615H93.8193C95.3761 56.4615 96.0932 54.5251 94.912 53.511Z" fill="#020817" />
</svg>
