<svg width="123" height="119" viewBox="0 0 123 119" fill="none" xmlns="http://www.w3.org/2000/svg">
	<g clip-path="url(#clip0_224_6)">
		<path d="M29.22 56.5401C32.79 62.9701 36.89 69.1401 42.24 74.7801C47.58 80.4501 54.24 85.6001 62.86 90.0001C63.5 90.3101 64.11 90.3101 64.64 90.1001C65.46 89.7901 66.3 89.1101 67.12 88.2901C67.76 87.6501 68.55 86.6301 69.38 85.5201C72.69 81.16 76.8 75.7501 82.59 78.4501C82.72 78.5101 82.82 78.5801 82.94 78.6401L102.27 89.7501C102.33 89.7801 102.4 89.8501 102.46 89.8801C105.01 91.6301 106.06 94.3401 106.09 97.4001C106.09 100.52 104.94 104.03 103.26 106.98C101.04 110.89 97.75 113.48 93.97 115.19C90.37 116.85 86.36 117.74 82.51 118.31C76.46 119.2 70.8 118.63 65.01 116.85C59.34 115.1 53.64 112.2 47.41 108.35L46.95 108.06C44.09 106.28 41 104.36 37.97 102.11C26.87 93.7301 15.57 81.6401 8.21 68.3301C2.03 57.1501 -1.34 45.0901 0.499999 33.5901C1.52 27.2901 4.22 21.5601 8.94 17.7701C13.05 14.4601 18.58 12.6401 25.75 13.2801C26.57 13.3401 27.31 13.8201 27.69 14.5201L40.08 35.4601C41.89 37.8101 42.12 40.1401 41.13 42.4701C40.31 44.3801 38.65 46.1401 36.39 47.7801C35.72 48.3501 34.93 48.9301 34.1 49.5301C31.33 51.5401 28.18 53.8601 29.26 56.6001L29.22 56.5401ZM73.35 7.55005C72.84 7.51005 72.36 7.37005 71.93 7.15005C71.48 6.92005 71.09 6.61005 70.77 6.24005C70.45 5.86005 70.2 5.43005 70.04 4.95005C69.9 4.49005 69.84 4.00005 69.88 3.49005L69.89 3.42005C69.93 2.93005 70.07 2.47005 70.28 2.06005L70.32 1.99005C70.54 1.57005 70.84 1.20005 71.19 0.910054C71.56 0.590054 72 0.340054 72.48 0.180054C72.93 0.0300537 73.41 -0.0299463 73.9 5.37108e-05L74 0.0100537C77.43 0.280054 80.74 0.800054 83.92 1.56005C87.13 2.33005 90.19 3.36005 93.08 4.61005C95.99 5.88005 98.73 7.39005 101.28 9.13005C103.82 10.8701 106.19 12.8401 108.34 15.0301C110.47 17.2001 112.4 19.5901 114.11 22.1801C115.8 24.7501 117.27 27.5201 118.51 30.4601C119.71 33.3401 120.69 36.4001 121.43 39.6401C122.15 42.8101 122.64 46.1401 122.88 49.6201L122.89 49.7901V49.9701C122.89 50.4301 122.81 50.8801 122.66 51.3001C122.5 51.7501 122.26 52.1501 121.95 52.5001C121.64 52.8501 121.27 53.1401 120.85 53.3601C120.46 53.5701 120.01 53.7001 119.54 53.7601L119.34 53.7801H119.15C118.68 53.7901 118.23 53.7101 117.81 53.5501C117.37 53.3901 116.96 53.1501 116.61 52.8401C116.24 52.5201 115.93 52.1201 115.71 51.6701C115.5 51.2401 115.36 50.7501 115.33 50.2501C115.12 47.1601 114.7 44.2201 114.07 41.4501C113.44 38.6201 112.59 35.9501 111.55 33.4401C110.51 30.9201 109.26 28.5601 107.83 26.3801C106.38 24.1701 104.75 22.1501 102.95 20.3101C101.13 18.4601 99.14 16.8001 96.98 15.3301C94.81 13.8501 92.47 12.5701 89.97 11.4901L89.93 11.4701C87.45 10.4001 84.82 9.52005 82.05 8.86005C79.29 8.23005 76.39 7.78005 73.35 7.55005ZM65.03 43.2101C64.52 43.1601 64.04 43.0001 63.62 42.7801C63.18 42.5401 62.79 42.2201 62.49 41.8401C62.2 41.4801 61.97 41.0601 61.82 40.6101C61.68 40.1901 61.62 39.7401 61.64 39.2801C61.65 39.1501 61.65 39.0501 61.67 38.9301C61.74 38.4501 61.9 38.0001 62.12 37.6101C62.35 37.2001 62.66 36.8401 63.02 36.5501C63.38 36.2601 63.8 36.0301 64.25 35.8801C64.67 35.7501 65.12 35.6801 65.59 35.7001L65.94 35.7301C67.43 35.8901 68.86 36.1501 70.24 36.5001C71.64 36.8601 72.97 37.3201 74.22 37.8601L74.26 37.8801C75.53 38.4401 76.72 39.0901 77.83 39.8401C78.95 40.6001 79.99 41.4501 80.95 42.4101C81.9 43.3601 82.76 44.3901 83.52 45.5101C84.28 46.6201 84.94 47.8101 85.51 49.0901C86.06 50.3401 86.52 51.6701 86.88 53.0701C87.23 54.4401 87.48 55.9001 87.64 57.4401C87.69 57.9501 87.64 58.4501 87.51 58.9101L87.5 58.9501C87.36 59.4101 87.12 59.8401 86.83 60.2101L86.82 60.2301C86.51 60.6101 86.13 60.9201 85.69 61.1601C85.27 61.3901 84.79 61.5401 84.28 61.5901H84.23C83.74 61.6301 83.26 61.5801 82.81 61.4501C82.33 61.3101 81.89 61.0701 81.51 60.7601H81.5C81.12 60.4501 80.8 60.0701 80.56 59.6201C80.33 59.2001 80.18 58.7201 80.13 58.2201V58.1801C80.02 57.0901 79.84 56.0501 79.59 55.0601C79.34 54.0501 79.02 53.1101 78.64 52.2401C78.26 51.3701 77.82 50.5601 77.32 49.8201C76.81 49.0701 76.25 48.3901 75.63 47.7701C75.01 47.1501 74.32 46.5901 73.57 46.0901C72.82 45.5901 72 45.1501 71.11 44.7601L71.06 44.7401C70.19 44.3601 69.25 44.0501 68.26 43.8001C67.22 43.5101 66.15 43.3301 65.03 43.2101ZM69.03 25.9901H68.93L68.8 25.9701C68.33 25.9201 67.89 25.7801 67.5 25.5801C67.08 25.3601 66.71 25.0701 66.4 24.7301C66.08 24.3701 65.83 23.9601 65.67 23.5001C65.52 23.0701 65.44 22.6101 65.45 22.1201V21.9501L65.47 21.7901C65.52 21.3301 65.66 20.8901 65.86 20.5001C66.08 20.0801 66.37 19.7001 66.71 19.4001C67.08 19.0701 67.51 18.8201 67.99 18.6501C68.45 18.4901 68.94 18.4201 69.45 18.4501C72.11 18.6101 74.64 18.9501 77.03 19.4601C79.43 19.9701 81.7 20.6601 83.81 21.5201C85.94 22.3901 87.93 23.4401 89.77 24.6601C91.59 25.8701 93.27 27.2601 94.78 28.8301C96.28 30.3801 97.62 32.1001 98.78 33.9801C99.93 35.8401 100.92 37.8601 101.72 40.0301C102.5 42.1501 103.12 44.4301 103.56 46.8701C103.99 49.2701 104.25 51.8001 104.33 54.4901L104.34 54.6301C104.34 55.1101 104.25 55.5801 104.07 56.0101C103.89 56.4601 103.63 56.8601 103.31 57.2101C102.98 57.5701 102.57 57.8601 102.11 58.0601C101.68 58.2601 101.19 58.3701 100.68 58.3901H100.51C100.03 58.3801 99.58 58.2901 99.16 58.1201C98.71 57.9401 98.31 57.6801 97.97 57.3601C97.61 57.0201 97.32 56.6201 97.11 56.1601C96.91 55.7201 96.8 55.2401 96.78 54.7201C96.72 52.4801 96.5 50.3701 96.15 48.3801C95.8 46.3701 95.3 44.5001 94.68 42.7801C94.06 41.0601 93.3 39.4801 92.42 38.0301C91.53 36.5701 90.51 35.2601 89.37 34.0701C88.21 32.8801 86.93 31.8101 85.52 30.8801C84.1 29.9401 82.53 29.1301 80.85 28.4501L80.81 28.4301C79.11 27.7601 77.29 27.2101 75.34 26.8001C73.38 26.3901 71.29 26.1101 69.09 25.9801L69.03 25.9901Z" fill="white" />
	</g>
	<defs>
		<clipPath id="clip0_224_6">
			<rect width="122.88" height="118.72" fill="white" />
		</clipPath>
	</defs>
</svg>
