<svg width="68" height="68" viewBox="0 0 68 68" fill="none" xmlns="http://www.w3.org/2000/svg">
	<path d="M22.5999 27.1999C20.9999 25.5999 18.4999 25.5999 16.8999 27.1999C15.3999 28.6999 15.2999 31.0999 16.6999 32.6999L28.7999 45.7999C29.4999 46.5999 30.5999 46.9999 31.6999 46.9999H31.7999C32.8999 46.9999 33.8999 46.5999 34.5999 45.7999L65.0999 15.2999C66.6999 13.6999 66.6999 11.1999 65.0999 9.5999C63.4999 7.9999 60.9999 7.9999 59.3999 9.5999L31.8999 37.2999L22.5999 27.1999Z" fill="#285EB2" />
	<path d="M34.0001 67.4001C52.5001 67.4001 67.4001 52.4001 67.4001 34.0001C67.4001 31.8001 65.6001 30.0001 63.4001 30.0001C61.2001 30.0001 59.4001 31.8001 59.4001 34.0001C59.4001 48.0001 48.0001 59.4001 34.0001 59.4001C20.0001 59.4001 8.6001 48.0001 8.6001 34.0001C8.6001 20.0001 20.0001 8.6001 34.0001 8.6001C36.2001 8.6001 38.0001 6.8001 38.0001 4.6001C38.0001 2.4001 36.2001 0.600098 34.0001 0.600098C15.5001 0.600098 0.600098 15.6001 0.600098 34.0001C0.600098 52.5001 15.5001 67.4001 34.0001 67.4001Z" fill="#285EB2" />
</svg>
